<?xml version="1.0" encoding="UTF-8"?>
<!DOCTYPE svg PUBLIC "-//W3C//DTD SVG 1.1//EN" "http://www.w3.org/Graphics/SVG/1.1/DTD/svg11.dtd">
<!-- Creator: CorelDRAW -->
<svg xmlns="http://www.w3.org/2000/svg" xml:space="preserve" width="47.8372mm" height="45.3794mm" version="1.1" style="shape-rendering:geometricPrecision; text-rendering:geometricPrecision; image-rendering:optimizeQuality; fill-rule:evenodd; clip-rule:evenodd"
viewBox="0 0 318.68 302.31"
 xmlns:xlink="http://www.w3.org/1999/xlink">
 <defs>
  <style type="text/css">
   <![CDATA[
    .str0 {stroke:black;stroke-width:2.35;stroke-miterlimit:10}
    .fil2 {fill:none;fill-rule:nonzero}
    .fil5 {fill:black;fill-rule:nonzero}
    .fil4 {fill:#C0BBBB;fill-rule:nonzero}
    .fil3 {fill:#CACACA;fill-rule:nonzero}
    .fil0 {fill:red;fill-rule:nonzero}
    .fil1 {fill:white;fill-rule:nonzero}
   ]]>
  </style>
 </defs>
 <g id="Layer_x0020_1">
  <metadata id="CorelCorpID_0Corel-Layer"/>
  <g id="_105553470918464">
   <path class="fil0" d="M196.11 279.32c-0.83,0.39 -1.59,0.74 -2.3,1.05 -5.27,2.6 -11.75,4.57 -19.26,5.87l-0.15 0.03c-2.25,0.35 -4.81,0.61 -7.73,0.78l-0.13 0.25 -5.94 -0 -1.26 -0.01 -1.26 0.01 -5.92 0.04 -0.15 -0.29c-2.93,-0.17 -5.48,-0.43 -7.73,-0.78l-0.15 -0.03c-7.51,-1.3 -13.98,-3.27 -19.25,-5.87 -0.71,-0.3 -1.47,-0.65 -2.3,-1.05l10.59 22.99 -24.99 -12.61c-42.12,-21.27 -55.26,-30.68 -60.91,-35.84l-2.72 21.12 -14.39 -27.52c-13.6,-26.02 -20.13,-49.82 -19.4,-70.73 -0.26,-10.82 1.85,-28.96 6.44,-55.37 -3.2,-5.92 -6.4,-13.23 -9.53,-21.78 -3.09,-8.53 -4.7,-14.99 -4.98,-20.07l-1.44 1.89 -1.25 -31.75 -0 -0.16c-0.09,-12.28 4.09,-22.46 12.42,-30.24 10.18,-10.51 21.07,-16.87 32.37,-18.88l0.23 -0.04c1.38,-0.21 2.8,-0.32 4.2,-0.32 4.25,0 8.54,0.99 12.75,2.93 2.38,1.12 4.67,2.42 6.88,3.92l0.2 0.14 0.2 0.15c10.42,7.85 13.16,9.52 13.73,9.84 1.54,0.7 2.55,1.08 3.18,1.3l0.59 -0.15 1.13 0.25c0.54,-0.1 1.51,-0.32 3.09,-0.75l4 -1.64 15.89 -7.79 0.43 -0.16c6.16,-2.32 9.06,-3.18 10.95,-3.53 5.92,-1.61 14.82,-2.59 27.07,-2.98l0.05 -0.17 7.28 -0.03c0.92,0 1.82,0.01 2.71,0.01 0.89,-0.01 1.79,-0.01 2.71,-0.01l7.19 -0.01 0.06 0.2c12.29,0.39 21.22,1.37 27.15,2.98 1.9,0.35 4.79,1.21 10.95,3.53l0.44 0.16 15.89 7.79 4 1.64c1.58,0.44 2.55,0.65 3.09,0.75l1.13 -0.25 0.59 0.15c0.63,-0.21 1.64,-0.6 3.18,-1.3 0.57,-0.32 3.31,-1.99 13.73,-9.84l0.2 -0.15 0.21 -0.14c2.21,-1.49 4.5,-2.8 6.82,-3.89 4.27,-1.97 8.56,-2.95 12.81,-2.95 1.4,0 2.81,0.11 4.2,0.32l0.23 0.04c11.29,2.02 22.18,8.37 32.37,18.88 8.33,7.78 12.5,17.96 12.42,30.24l-0.01 0.32 -1.24 31.6 -1.44 -1.89c-0.28,5.09 -1.89,11.54 -4.97,20.04 -3.13,8.57 -6.33,15.88 -9.54,21.8 4.59,26.4 6.7,44.55 6.44,55.37 0.73,20.91 -5.79,44.71 -19.4,70.73l-14.38 27.52 -2.72 -21.12c-5.65,5.16 -18.79,14.58 -60.91,35.84l-24.98 12.61 10.59 -22.99z"/>
   <path class="fil0" d="M308.74 53.88l0.17 -4.47c0.07,-9.57 -3.1,-17.3 -9.49,-23.19 -8.82,-9.16 -17.9,-14.58 -27.24,-16.24 -3.71,-0.57 -7.5,0.04 -11.37,1.82 -1.87,0.88 -3.7,1.92 -5.49,3.14 -8.76,6.6 -13.94,10.24 -15.54,10.92 -4.09,1.86 -6.76,2.63 -7.99,2.31 -1.01,0.22 -3.42,-0.21 -7.25,-1.3l-4.82 -1.98 -15.76 -7.72c-5.06,-1.91 -8.26,-2.95 -9.62,-3.12 -6.07,-1.75 -16.84,-2.73 -32.27,-2.92l-0.01 -0.04c-0.93,0 -1.83,0.01 -2.72,0.01 -0.9,-0.01 -1.8,-0.01 -2.72,-0.01l-0.01 0.04c-15.43,0.2 -26.2,1.17 -32.27,2.92 -1.35,0.17 -4.56,1.21 -9.62,3.12l-15.76 7.72 -4.82 1.98c-3.82,1.09 -6.24,1.52 -7.25,1.3 -1.24,0.32 -3.9,-0.45 -7.99,-2.31 -1.6,-0.68 -6.78,-4.32 -15.54,-10.92 -1.79,-1.21 -3.62,-2.26 -5.49,-3.14 -3.87,-1.78 -7.66,-2.39 -11.37,-1.82 -9.34,1.67 -18.42,7.08 -27.24,16.24 -6.39,5.89 -9.56,13.62 -9.49,23.19l0.18 4.47c2,-2.62 3.51,-4.17 4.53,-4.65 0.49,-0.27 1.07,-0.43 1.7,-0.51 -0.05,0.16 -0.1,0.29 -0.13,0.4 -1.54,4.91 -2.4,8.44 -2.56,10.56 -0.18,1.42 -0.27,2.84 -0.27,4.26l0.09 2.14c0.11,1.43 0.34,2.86 0.69,4.3 0.35,1.44 0.81,2.88 1.37,4.33 0.18,0.72 1.2,2.9 3.05,6.54 1.21,2.16 2.48,4.31 3.82,6.48 -0.16,-0.09 -0.32,-0.18 -0.46,-0.28 -2.26,-1.18 -5.37,-4.47 -9.35,-9.88 -0.09,4.05 1.39,10.27 4.43,18.65 3.46,9.47 6.92,17.15 10.38,23.04 0.06,0.11 0.13,0.22 0.2,0.33 -4.9,27.64 -7.2,46.71 -6.89,57.19 -0.75,19.36 5.34,41.41 18.28,66.15 1.26,-9.81 2.05,-16.83 2.37,-21.08 0.28,9.75 4.22,17.76 11.83,24.01 7.1,6.95 26.95,18.66 59.56,35.12l-11.76 -25.54c13.62,8.54 23,13.89 28.14,16.05 4.49,2.25 10.1,3.96 16.84,5.12 3.16,0.49 7.24,0.79 12.21,0.88l0.02 0.03c0.45,-0 0.88,-0.01 1.32,-0.01 0.44,0.01 0.87,0.01 1.32,0.01l0.02 -0.03c4.98,-0.09 9.05,-0.38 12.22,-0.88 6.73,-1.17 12.35,-2.87 16.84,-5.12 5.13,-2.15 14.51,-7.5 28.14,-16.05l-11.76 25.54c32.61,-16.46 52.46,-28.17 59.55,-35.12 7.61,-6.25 11.55,-14.25 11.83,-24.01 0.32,4.26 1.11,11.27 2.37,21.08 12.94,-24.75 19.03,-46.8 18.28,-66.15 0.31,-10.48 -1.99,-29.54 -6.89,-57.19 0.06,-0.11 0.14,-0.22 0.2,-0.33 3.46,-5.89 6.92,-13.57 10.38,-23.04 3.04,-8.38 4.51,-14.6 4.43,-18.65 -3.97,5.41 -7.09,8.7 -9.35,9.88 -0.14,0.09 -0.3,0.18 -0.46,0.28 1.34,-2.16 2.61,-4.32 3.82,-6.48 1.85,-3.64 2.87,-5.82 3.05,-6.54 0.56,-1.45 1.01,-2.89 1.37,-4.33 0.35,-1.44 0.58,-2.87 0.69,-4.3l0.09 -2.14c0,-1.42 -0.09,-2.84 -0.27,-4.26 -0.16,-2.13 -1.02,-5.65 -2.56,-10.56 -0.03,-0.1 -0.07,-0.24 -0.13,-0.4 0.64,0.08 1.21,0.24 1.7,0.51 1.02,0.48 2.53,2.03 4.53,4.65z"/>
   <polygon class="fil1" points="31.98,77.61 77.49,43.62 154.53,23.94 241.19,189.51 212.98,253.51 156.41,272.13 124.68,262.71 98.12,246.7 98.12,266.24 70.62,250.79 46.27,222.21 36.33,217.4 27.71,189.76 26.39,163.28 31.98,121.7 "/>
   <polygon class="fil2 str0" points="31.98,77.61 77.49,43.62 154.53,23.94 241.19,189.51 212.98,253.51 156.41,272.13 124.68,262.71 98.12,246.7 98.12,266.24 70.62,250.79 46.27,222.21 36.33,217.4 27.71,189.76 26.39,163.28 31.98,121.7 "/>
   <path class="fil3" d="M164.41 268.97l-21.1 -25.77 26.98 -13.14 -18.45 -11.56 10.4 -2.74 -1.3 -17.3 -13.96 -32.03 11.76 -21.13 -18.29 -18.34 10.5 -10.54 -6.4 -41.71 10.26 8 -2.65 -28.51 -19.48 -27.59 45.42 -2.65 44.62 13.27 25.6 8.88 25 24.65 12.35 17.29 2.05 23.17 -3.85 14.4c3.05,12.19 6.2,23.44 9.43,33.75l-0.06 23.36 -7.33 29.16 -10.7 -8.95 -2.34 17.87 -9.91 17.42c-10.24,7.17 -24.22,16.19 -41.94,27.06l5.15 -20.97c-10.71,7.88 -21.76,15.06 -33.13,21.53l-16.55 3.92 -20.05 2.38 8 -3.16z"/>
   <path class="fil4" d="M227.16 243.75l0 0c8.84,-8.01 14.6,-13.97 17.29,-17.88 3,-3.93 5.78,-9.72 8.33,-17.38 2.55,9.55 3.7,16.56 3.47,21.02 0.03,4.52 -1.42,10.99 -4.37,19.41l-28.35 13.78 3.63 -18.96z"/>
   <path class="fil4" d="M91.52 243.75l0 0c-8.84,-8.01 -14.6,-13.97 -17.29,-17.88 -3,-3.93 -5.78,-9.72 -8.33,-17.38 -2.55,9.55 -3.7,16.56 -3.47,21.02 -0.03,4.52 1.42,10.99 4.37,19.41l28.34 13.78 -3.62 -18.96z"/>
   <path class="fil4" d="M276.85 198.72l0 0c0.33,-8.78 0.21,-15.31 -0.35,-19.59 -0.43,-4.3 -1.79,-10.63 -4.09,-19.01 8.47,10.53 13.7,17.91 15.71,22.14 0.55,1.08 1.03,2.12 1.43,3.13l0.56 1.49c0.34,0.98 0.62,1.93 0.86,2.87 0.61,2.34 1.05,5.42 1.32,9.24l-6.67 14.05 -8.77 -14.33z"/>
   <path class="fil4" d="M41.84 198.72l0 0c-0.33,-8.78 -0.21,-15.31 0.35,-19.59 0.43,-4.3 1.79,-10.63 4.09,-19.01 -8.47,10.53 -13.7,17.91 -15.71,22.14 -0.55,1.08 -1.03,2.12 -1.43,3.13l-0.56 1.49c-0.34,0.98 -0.62,1.93 -0.86,2.87 -0.61,2.34 -1.05,5.42 -1.32,9.24l6.68 14.05 8.77 -14.33z"/>
   <path class="fil4" d="M274.77 105.28l-0.28 1.17c-1.18,5.17 -2.25,8.99 -3.23,11.46 -0.86,2.28 -2.3,4.6 -4.32,6.97l12.54 1.35c-1.22,5.29 -2.51,8.79 -3.88,10.5 -1.23,1.88 -3.84,3.77 -7.83,5.67l20.81 11.86 1.29 -40 -2.06 -25.11 -13.04 16.13z"/>
   <path class="fil4" d="M43.91 105.28l0.28 1.17c1.18,5.17 2.25,8.99 3.23,11.46 0.86,2.28 2.3,4.6 4.32,6.97l-12.54 1.35c1.22,5.29 2.51,8.79 3.88,10.5 1.23,1.88 3.84,3.77 7.83,5.67l-20.81 11.86 -1.29 -40 2.06 -25.11 13.04 16.13z"/>
   <path class="fil4" d="M108.41 188l0 0c-5.43,-3.5 -9.27,-6.67 -11.52,-9.51 -2.33,-2.65 -5.35,-7.72 -9.07,-15.2l18.09 5.29 2.49 19.43z"/>
   <path class="fil4" d="M210.27 188l0 0c5.43,-3.5 9.27,-6.67 11.52,-9.51 2.33,-2.65 5.35,-7.72 9.07,-15.2l-18.09 5.29 -2.49 19.43z"/>
   <path class="fil4" d="M84.71 168.22l0 0c-1.97,-3.68 -3.22,-6.45 -3.74,-8.3 -0.24,-0.69 -0.5,-1.85 -0.78,-3.48 -0.19,-1.16 -0.37,-2.79 -0.54,-4.89l5.87 -0.55 -0.8 17.22z"/>
   <path class="fil4" d="M233.98 168.22l0 0c1.97,-3.68 3.22,-6.45 3.74,-8.3 0.24,-0.69 0.5,-1.85 0.78,-3.48 0.19,-1.16 0.37,-2.79 0.54,-4.89l-5.87 -0.55 0.8 17.22z"/>
   <path class="fil4" d="M77.51 150.08l0 0c-2.56,-4.21 -4.1,-7.7 -4.62,-10.45 -0.15,-0.67 -0.27,-1.37 -0.37,-2.08 -0.07,-0.34 -0.17,-1.45 -0.3,-3.34 -0.11,-1.91 -0.12,-4.69 -0.03,-8.36l10.87 15.19 -5.55 9.03z"/>
   <path class="fil4" d="M241.18 150.08l0 0c2.56,-4.21 4.1,-7.7 4.62,-10.45 0.15,-0.67 0.27,-1.37 0.37,-2.08 0.07,-0.34 0.17,-1.45 0.3,-3.34 0.11,-1.91 0.12,-4.69 0.03,-8.36l-10.87 15.19 5.55 9.03z"/>
   <path class="fil4" d="M128.7 130.36l0 0c-1.81,-2.82 -3.48,-4.98 -5,-6.48 -1.41,-1.48 -4.15,-3.79 -8.21,-6.93 2.96,0.56 5.67,1.36 8.13,2.41 2.28,0.91 6.69,3.06 13.2,6.43l4.02 11.49 -3.21 3.79 -8.94 -10.71z"/>
   <path class="fil4" d="M189.98 130.36l0 0c1.81,-2.82 3.48,-4.98 5,-6.48 1.41,-1.48 4.15,-3.79 8.21,-6.93 -2.96,0.56 -5.68,1.36 -8.13,2.41 -2.28,0.91 -6.69,3.06 -13.2,6.43l-4.02 11.49 3.21 3.79 8.94 -10.71z"/>
   <path class="fil4" d="M91.88 116.48l0 0c-0.17,1.15 -0.28,2.28 -0.33,3.39 -0.02,0.74 0.02,1.45 0.15,2.14 0.12,0.69 0.35,1.35 0.69,1.97 0.21,0.48 0.75,1.22 1.6,2.21 0.37,0.43 1.04,1.12 2.03,2.07l5.82 -0.3 -0.68 -6.29 -9.26 -5.19z"/>
   <path class="fil4" d="M226.8 116.48l0 0c0.17,1.15 0.28,2.28 0.33,3.39 0.02,0.74 -0.02,1.45 -0.15,2.14 -0.12,0.69 -0.35,1.35 -0.69,1.97 -0.21,0.48 -0.75,1.22 -1.6,2.21 -0.37,0.43 -1.04,1.12 -2.03,2.07l-5.82 -0.3 0.68 -6.29 9.26 -5.19z"/>
   <path class="fil1" d="M246.7 29.98l0 0c3.2,-3.76 5.53,-6.3 6.99,-7.61 2.44,-2.14 3.94,-3.32 4.49,-3.54 1.04,-0.65 2.1,-1.19 3.21,-1.6l1.68 -0.51c2,-0.49 4.21,-0.49 6.63,0.02 4.95,1.15 9.14,3.76 12.58,7.84 3.19,4.09 4.66,9.08 4.39,14.98 -0.17,4.34 -0.66,8.81 -1.47,13.41 -3.22,-6.38 -5.87,-11.05 -7.96,-14.02 -1.79,-2.57 -3.61,-4.43 -5.46,-5.59 -2.16,-1.38 -4.97,-2.29 -8.43,-2.74l-16.65 -0.65z"/>
   <path class="fil1" d="M71.98 29.98l0 0c-3.2,-3.76 -5.53,-6.3 -6.99,-7.61 -2.44,-2.14 -3.94,-3.32 -4.48,-3.54 -1.04,-0.65 -2.1,-1.19 -3.21,-1.6l-1.68 -0.51c-2,-0.49 -4.21,-0.49 -6.63,0.02 -4.95,1.15 -9.14,3.76 -12.58,7.84 -3.19,4.09 -4.66,9.08 -4.39,14.98 0.17,4.34 0.66,8.81 1.47,13.41 3.22,-6.38 5.87,-11.05 7.96,-14.02 1.79,-2.57 3.61,-4.43 5.46,-5.59 2.16,-1.38 4.97,-2.29 8.43,-2.74l16.65 -0.65z"/>
   <path class="fil5" d="M240.01 127.42c-5.88,0.89 -11.6,0.4 -17.17,-1.48 -1.37,-0.74 -1.82,-1.31 -1.35,-1.71 -0.29,-0.01 0.81,-1.02 3.29,-3.05l1.37 -1.72c0.78,-1.11 1.35,-3.31 1.69,-6.55 -0.4,1.53 -2.45,3.14 -6.15,4.84l-5.55 2.17 -19.73 6.76c-3.1,1.13 -5.6,2.18 -7.5,3.15 -3.25,1.51 -5.75,3.65 -7.5,6.42 -0.14,-3.2 0.42,-5.71 1.68,-7.53 1.02,-1.78 3.87,-4.69 8.57,-8.71l-15.24 5.87 -17.07 17.1 -17.07 -17.1 -15.24 -5.87c4.69,4.02 7.55,6.92 8.56,8.71 1.26,1.82 1.82,4.34 1.68,7.53 -1.76,-2.77 -4.26,-4.91 -7.5,-6.42 -1.9,-0.97 -4.4,-2.02 -7.5,-3.15l-19.73 -6.76 -5.55 -2.17c-3.7,-1.69 -5.75,-3.3 -6.15,-4.84 0.35,3.24 0.91,5.44 1.69,6.55l1.37 1.72c2.48,2.02 3.57,3.04 3.29,3.05 0.47,0.4 0.02,0.97 -1.35,1.71 -5.57,1.88 -11.3,2.37 -17.17,1.48 -3.5,-0.95 -6.19,-3.19 -8.05,-6.73 1.08,6.72 2.15,11.32 3.22,13.79 0.98,2.62 2.98,5.67 6,9.12 -2.29,3.69 -3.53,6.58 -3.72,8.67 -0.36,2.05 0.07,5.36 1.27,9.94 0.87,-3.92 1.59,-6.3 2.16,-7.14 0.54,-1.04 1.5,-1.48 2.88,-1.33 0.33,11.26 1.73,17.97 4.21,20.13 0.69,1 2.44,2.24 5.26,3.73 -1.61,-4.16 -2.49,-6.85 -2.65,-8.08 -0.27,-1.38 -0.04,-2.61 0.71,-3.67l11.33 8.56c1.78,7.11 3.6,11.88 5.47,14.31 1.69,2.63 5.22,5.44 10.56,8.44 -4.06,-8.6 0.46,-20.38 13.56,-35.34 3.96,-4.36 8.07,-7.62 12.35,-9.78 4.23,-2.17 9.61,-3.86 16.11,-5.07 6.5,1.21 11.87,2.9 16.11,5.07 4.27,2.16 8.39,5.42 12.35,9.78 13.1,14.96 17.62,26.74 13.56,35.34 5.35,-3 8.87,-5.81 10.56,-8.44 1.87,-2.43 3.69,-7.2 5.47,-14.31l11.33 -8.56c0.75,1.07 0.98,2.29 0.71,3.67 -0.16,1.23 -1.04,3.93 -2.65,8.08 2.81,-1.49 4.57,-2.74 5.26,-3.73 2.48,-2.16 3.89,-8.87 4.21,-20.13 1.38,-0.15 2.34,0.29 2.88,1.33 0.57,0.84 1.29,3.22 2.16,7.14 1.21,-4.58 1.63,-7.89 1.27,-9.94 -0.19,-2.09 -1.43,-4.98 -3.72,-8.67 3.02,-3.46 5.02,-6.5 6,-9.12 1.07,-2.47 2.15,-7.06 3.22,-13.79 -1.86,3.54 -4.54,5.78 -8.05,6.73z"/>
   <path class="fil5" d="M227.84 112.91c0.06,-0.23 0.08,-0.45 0.07,-0.67 -0.02,0.23 -0.05,0.45 -0.07,0.67z"/>
   <path class="fil5" d="M90.84 112.91c-0.02,-0.22 -0.05,-0.44 -0.07,-0.67 -0.01,0.22 0.01,0.45 0.07,0.67z"/>
   <path class="fil5" d="M194.99 104.31c4.06,-3.4 7.29,-9.32 9.72,-17.78 -3.71,5.01 -7.5,8.9 -11.37,11.65 -4.94,3.35 -8.42,4.61 -10.46,3.8 -0.64,-0.69 -0.83,-1.66 -0.56,-2.92l1.87 -8.73c0.31,-1.89 0.44,-3.78 0.37,-5.68 -0.11,-3.31 -0.77,-7.56 -1.99,-12.75 -3.12,10.72 -5.5,17.73 -7.14,21.03 -1.63,3.66 -4.15,7.1 -7.57,10.29l-3.72 17.87 6.35 -3.33c12.78,-5.43 20.95,-9.91 24.5,-13.46z"/>
   <path class="fil5" d="M123.69 104.31c3.55,3.54 11.71,8.03 24.5,13.46l6.35 3.33 -3.72 -17.87c-3.42,-3.2 -5.94,-6.63 -7.57,-10.29 -1.64,-3.3 -4.02,-10.3 -7.14,-21.03 -1.22,5.19 -1.89,9.44 -1.99,12.75 -0.07,1.89 0.06,3.78 0.37,5.68l1.87 8.73c0.27,1.26 0.08,2.24 -0.56,2.92 -2.03,0.81 -5.52,-0.46 -10.46,-3.8 -3.87,-2.75 -7.66,-6.64 -11.37,-11.65 2.42,8.46 5.66,14.38 9.72,17.78z"/>
   <path class="fil5" d="M284.56 203.22l-0.89 2.71c-2.52,-6.79 -4.89,-11.5 -7.12,-14.12 -2.06,-2.76 -6.12,-6.14 -12.18,-10.12 3.7,10.27 4.35,21.76 1.95,34.47 -2.54,11.01 -7.03,19.17 -13.46,24.47 -5.8,5.4 -14.93,11.54 -27.39,18.42 5.85,-13.35 9.87,-25.68 12.09,-37.02 -10.44,16.26 -21.76,27.15 -33.98,32.66 -14.62,7.71 -29.37,11.61 -44.24,11.71 -14.87,-0.11 -29.62,-4 -44.24,-11.71 -12.22,-5.51 -23.55,-16.4 -33.98,-32.66 2.21,11.33 6.24,23.67 12.09,37.02 -12.46,-6.88 -21.59,-13.02 -27.39,-18.42 -6.43,-5.3 -10.92,-13.46 -13.46,-24.47 -2.4,-12.71 -1.75,-24.2 1.95,-34.47 -6.06,3.99 -10.12,7.36 -12.18,10.12 -2.23,2.62 -4.6,7.33 -7.12,14.12l-0.89 -2.71c-2.31,-1.6 -1.5,-22.38 2.43,-62.35l0.87 -9.15c1.78,1.47 3.66,2.76 5.65,3.83 4.89,2.56 11.03,3.18 18.45,1.88 -11.49,-6.81 -18.6,-12.91 -21.35,-18.3 -2.42,-4.28 -4.06,-10.03 -4.94,-17.24l0.9 1.47c0.71,1.02 1.55,2.04 2.52,3.07 3.4,3.57 9.36,8.16 17.88,13.76 -3.9,-5.26 -6.52,-9.48 -7.88,-12.66 -0.56,-1.27 -1.02,-2.56 -1.4,-3.89l-0.47 -2.02c-0.26,-1.36 -0.38,-2.77 -0.38,-4.21 0.01,-1.45 0.15,-2.94 0.42,-4.47l0.49 -2.32c0.38,-1.57 0.86,-3.17 1.44,-4.8 0.75,-2.21 1.9,-4.98 3.42,-8.29l34.17 -28.25c17.36,-7.63 30.65,-12.22 39.86,-13.76 6.45,-1.24 14.37,-1.96 23.76,-2.15l-0.07 0.23 0 0c3.28,-0.13 6.43,-0.22 9.45,-0.26 3.03,0.04 6.17,0.13 9.45,0.26l0 -0 -0.07 -0.23c9.38,0.19 17.31,0.91 23.76,2.15 9.21,1.54 22.49,6.13 39.86,13.76l34.17 28.25c1.52,3.31 2.67,6.08 3.42,8.29 0.57,1.63 1.06,3.23 1.44,4.8l0.49 2.32c0.27,1.53 0.41,3.02 0.42,4.47 0,1.45 -0.12,2.85 -0.38,4.21l-0.47 2.02c-0.37,1.33 -0.84,2.62 -1.4,3.89 -1.35,3.18 -3.98,7.4 -7.88,12.66 8.52,-5.6 14.48,-10.19 17.88,-13.76 0.97,-1.02 1.81,-2.05 2.52,-3.07l0.9 -1.47c-0.88,7.2 -2.52,12.95 -4.94,17.24 -2.75,5.39 -9.86,11.5 -21.35,18.3 7.41,1.31 13.56,0.68 18.45,-1.88 1.99,-1.07 3.87,-2.36 5.65,-3.83l0.87 9.15c3.93,39.97 4.74,60.75 2.43,62.35zm24.17 -149.34l0.17 -4.47c0.07,-9.57 -3.1,-17.3 -9.49,-23.19 -8.82,-9.16 -17.9,-14.58 -27.24,-16.24 -3.71,-0.57 -7.5,0.04 -11.37,1.82 -1.87,0.88 -3.7,1.92 -5.49,3.14 -8.76,6.6 -13.94,10.24 -15.54,10.92 -4.09,1.86 -6.76,2.63 -7.99,2.31 -1.01,0.22 -3.42,-0.21 -7.25,-1.3l-4.82 -1.98 -15.76 -7.72c-5.06,-1.91 -8.26,-2.95 -9.62,-3.12 -6.07,-1.75 -16.84,-2.73 -32.27,-2.92l-0.01 -0.04c-0.93,0 -1.83,0.01 -2.72,0.01 -0.9,-0.01 -1.8,-0.01 -2.72,-0.01l-0.01 0.04c-15.43,0.2 -26.2,1.17 -32.27,2.92 -1.35,0.17 -4.56,1.21 -9.62,3.12l-15.76 7.72 -4.82 1.98c-3.82,1.09 -6.24,1.52 -7.25,1.3 -1.24,0.32 -3.9,-0.45 -7.99,-2.31 -1.6,-0.68 -6.78,-4.32 -15.54,-10.92 -1.79,-1.21 -3.62,-2.26 -5.49,-3.14 -3.87,-1.78 -7.66,-2.39 -11.37,-1.82 -9.34,1.67 -18.42,7.08 -27.24,16.24 -6.39,5.89 -9.56,13.62 -9.49,23.19l0.18 4.47c2,-2.62 3.51,-4.17 4.53,-4.65 0.49,-0.27 1.07,-0.43 1.7,-0.51 -0.05,0.16 -0.1,0.29 -0.13,0.4 -1.54,4.91 -2.4,8.44 -2.56,10.56 -0.18,1.42 -0.27,2.84 -0.27,4.26l0.09 2.14c0.11,1.43 0.34,2.86 0.69,4.3 0.35,1.44 0.81,2.88 1.37,4.33 0.18,0.72 1.2,2.9 3.05,6.54 1.21,2.16 2.48,4.31 3.82,6.48 -0.16,-0.09 -0.32,-0.18 -0.46,-0.28 -2.26,-1.18 -5.37,-4.47 -9.35,-9.88 -0.09,4.05 1.39,10.27 4.43,18.65 3.46,9.47 6.92,17.15 10.38,23.04 0.06,0.11 0.13,0.22 0.2,0.33 -4.9,27.64 -7.2,46.71 -6.89,57.19 -0.75,19.36 5.34,41.41 18.28,66.15 1.26,-9.81 2.05,-16.83 2.37,-21.08 0.28,9.75 4.22,17.76 11.83,24.01 7.1,6.95 26.95,18.66 59.56,35.12l-11.76 -25.54c13.62,8.54 23,13.89 28.14,16.05 4.49,2.25 10.1,3.96 16.84,5.12 3.16,0.49 7.24,0.79 12.21,0.88l0.02 0.03c0.45,-0 0.88,-0.01 1.32,-0.01 0.44,0.01 0.87,0.01 1.32,0.01l0.02 -0.03c4.98,-0.09 9.05,-0.38 12.22,-0.88 6.73,-1.17 12.35,-2.87 16.84,-5.12 5.13,-2.15 14.51,-7.5 28.14,-16.05l-11.76 25.54c32.61,-16.46 52.46,-28.17 59.55,-35.12 7.61,-6.25 11.55,-14.25 11.83,-24.01 0.32,4.26 1.11,11.27 2.37,21.08 12.94,-24.75 19.03,-46.8 18.28,-66.15 0.31,-10.48 -1.99,-29.54 -6.89,-57.19 0.06,-0.11 0.14,-0.22 0.2,-0.33 3.46,-5.89 6.92,-13.57 10.38,-23.04 3.04,-8.38 4.51,-14.6 4.43,-18.65 -3.97,5.41 -7.09,8.7 -9.35,9.88 -0.14,0.09 -0.3,0.18 -0.46,0.28 1.34,-2.16 2.61,-4.32 3.82,-6.48 1.85,-3.64 2.87,-5.82 3.05,-6.54 0.56,-1.45 1.01,-2.89 1.37,-4.33 0.35,-1.44 0.58,-2.87 0.69,-4.3l0.09 -2.14c0,-1.42 -0.09,-2.84 -0.27,-4.26 -0.16,-2.13 -1.02,-5.65 -2.56,-10.56 -0.03,-0.1 -0.07,-0.24 -0.13,-0.4 0.64,0.08 1.21,0.24 1.7,0.51 1.02,0.48 2.53,2.03 4.53,4.65z"/>
   <path class="fil5" d="M246.96 105.36c-0.76,2.19 -1.59,4.04 -2.49,5.55 -0.6,0.98 -1.23,1.83 -1.89,2.56 -0.14,0.22 -1.33,1.42 -3.58,3.59l-1.56 1.68c-1.39,1.6 -2.79,3.29 -4.18,5.09l-0.52 0.66 8.86 -2.95 0.7 -0.3c2.12,-0.88 3.61,-1.86 4.49,-2.93 0.73,-0.81 1.32,-1.88 1.76,-3.21 0.16,-0.25 0.4,-1.43 0.74,-3.54 0.39,-3.11 0.47,-7.92 0.24,-14.4 -1.07,3.68 -1.92,6.42 -2.57,8.2z"/>
   <path class="fil5" d="M76.39 121.25l0.7 0.3 8.86 2.95 -0.52 -0.66c-1.39,-1.8 -2.79,-3.49 -4.18,-5.09l-1.56 -1.68c-2.25,-2.17 -3.44,-3.37 -3.58,-3.59 -0.66,-0.73 -1.29,-1.59 -1.89,-2.56 -0.9,-1.51 -1.73,-3.36 -2.49,-5.55 -0.64,-1.78 -1.5,-4.52 -2.57,-8.2 -0.22,6.49 -0.14,11.29 0.24,14.4 0.33,2.11 0.58,3.29 0.73,3.54 0.45,1.34 1.04,2.41 1.77,3.21 0.87,1.07 2.37,2.05 4.49,2.93z"/>
   <path class="fil5" d="M216.04 109.67c0.53,-0.19 1.07,-0.38 1.59,-0.58 2.37,-0.92 4.04,-2.07 5.02,-3.45 1.22,-1.52 2.13,-3.84 2.71,-6.96 0.69,-3.61 1.2,-9.23 1.52,-16.86 -4.22,9.71 -7.71,16.25 -10.47,19.61 -0.97,1.4 -2.79,3.29 -5.44,5.68 -1.91,1.66 -4.71,3.72 -8.38,6.16l13.44 -3.59z"/>
   <path class="fil5" d="M202.6 113.26c0,-0 0,-0 0,-0l-0 0 0 0z"/>
   <path class="fil5" d="M116.09 113.26l-0 -0c0,0 0,0 0,0l0 -0z"/>
   <path class="fil5" d="M96.03 105.64c0.97,1.37 2.65,2.52 5.02,3.45 0.53,0.2 1.06,0.4 1.59,0.58l13.44 3.59c-3.68,-2.44 -6.47,-4.49 -8.38,-6.16 -2.65,-2.39 -4.46,-4.28 -5.44,-5.68 -2.76,-3.36 -6.24,-9.9 -10.47,-19.61 0.32,7.63 0.83,13.25 1.52,16.86 0.58,3.13 1.49,5.45 2.71,6.96z"/>
   <path class="fil5" d="M144.23 175.56c-3.59,-0.34 -8.39,-1.35 -14.41,-3.02l5.87 17.18c3.45,5.53 5.81,8.95 7.08,10.24 1.23,1.45 2.52,2.66 3.86,3.6 0.32,0.32 1.36,0.86 3.12,1.62 2.39,0.89 5.6,1.31 9.6,1.28 4,0.03 7.2,-0.4 9.6,-1.28 1.76,-0.77 2.8,-1.31 3.12,-1.62 1.34,-0.95 2.62,-2.15 3.86,-3.6 1.27,-1.3 3.63,-4.71 7.08,-10.24l5.87 -17.18c-6.02,1.67 -10.82,2.68 -14.41,3.02 -3.13,0.35 -7.41,0.51 -12.82,0.49l0 -0.05 -1.96 0.02c-0.12,0 -0.22,0 -0.34,0 -0.11,-0 -0.22,-0 -0.34,-0l-1.96 -0.02 0 0.05c-5.41,0.03 -9.69,-0.14 -12.82,-0.49z"/>
   <path class="fil5" d="M163.71 212.59l-29.94 9.62 62.73 -4.68c-10.93,-1.65 -21.86,-3.29 -32.79,-4.94z"/>
   <polygon class="fil5" points="133.76,222.21 133.76,222.21 "/>
   <path class="fil0" d="M194 148.79l0 0c3.51,2.88 6.41,4.71 8.68,5.48 2.2,0.76 4.29,0.68 6.27,-0.25 0.86,-0.41 1.72,-0.98 2.59,-1.71l1.31 -1.19c0.87,-0.87 1.75,-1.85 2.63,-2.95 2.2,-2.69 5.32,-7.36 9.35,-14 -11.05,5.1 -21.32,9.97 -30.83,14.63z"/>
   <path class="fil0" d="M124.68 148.79l0 0c-3.51,2.88 -6.41,4.71 -8.68,5.48 -2.2,0.76 -4.29,0.68 -6.27,-0.25 -0.86,-0.41 -1.72,-0.98 -2.59,-1.71l-1.31 -1.19c-0.87,-0.87 -1.75,-1.85 -2.63,-2.95 -2.2,-2.69 -5.32,-7.36 -9.35,-14 11.05,5.1 21.32,9.97 30.83,14.63z"/>
  </g>
 </g>
</svg>
